<svg xmlns="http://www.w3.org/2000/svg" width="68" height="59" viewBox="0 0 68 59" fill="none">
  <ellipse cx="9.43545" cy="25.4777" rx="7.53342" ry="9.20737" transform="rotate(-12.49 9.43545 25.4777)" fill="#724923"/>
  <ellipse cx="24.2405" cy="11.6844" rx="8.11768" ry="9.97834" transform="rotate(-1.48274 24.2405 11.6844)" fill="#724923"/>
  <ellipse cx="43.1287" cy="11.8123" rx="8.11768" ry="10.4566" transform="rotate(4.19831 43.1287 11.8123)" fill="#724923"/>
  <ellipse cx="57.4218" cy="25.7183" rx="7.7607" ry="9.65361" transform="rotate(17.0601 57.4218 25.7183)" fill="#724923"/>
  <path d="M33.6906 24.6792C37.8651 24.6792 42.2593 25.9975 47.3127 35.0056C49.0435 38.091 56.1011 39.6196 56.1011 47.7489C56.0279 51.4107 53.948 58.6905 46.2141 58.5147C36.5468 58.295 39.1834 55.4388 33.6906 55.4388C28.1978 55.4388 27.9781 58.5147 21.3868 58.5147C14.7954 58.5147 11.28 53.9008 11.0603 47.7489C10.8406 41.597 16.3334 39.3999 19.8488 35.0056C23.3641 30.6114 26.6598 24.6792 33.6906 24.6792Z" fill="#724923"/>
</svg>