<svg xmlns="http://www.w3.org/2000/svg" width="59" height="59" viewBox="0 0 59 59" fill="none">
  <path d="M3.55706 24.174C5.95497 23.1616 7.72186 24.1992 8.4791 24.8066C10.3722 26.3251 13.906 29.8683 15.0418 31.6399C16.1777 33.4115 17.0611 38.4732 15.6728 40.1182C14.2846 41.7633 12.5177 43.0287 10.4984 43.0287C8.4791 43.0287 2.79984 40.7509 1.79018 36.1954C1.06099 32.9053 -0.229122 26.9579 3.55706 24.174Z" fill="#724923"/>
  <path d="M18.197 3.80065C20.3425 3.80065 23.2799 6.96423 25.0121 14.6833C27.2838 24.8066 20.2163 27.464 18.197 27.464C16.1777 27.464 10.4984 26.3251 9.48875 17.3407C8.79195 11.1401 15.0418 3.80065 18.197 3.80065Z" fill="#724923"/>
  <path d="M31.3224 1.1433C32.7693 0.379721 39.0209 2.18094 42.5547 7.34386C46.0885 12.5068 44.3637 18.4374 43.0595 20.7573C42.0919 22.0227 39.2733 24.2752 35.7396 23.1616C31.3224 21.7697 29.6817 17.8468 29.4293 15.4425C29.1769 13.0382 27.9836 5.56794 28.672 3.80065C29.3605 2.03336 30.5231 1.5651 31.3224 1.1433Z" fill="#724923"/>
  <path d="M51.0105 14.1771C52.7774 14.4302 56.6393 16.3537 57.9518 22.0227C59.5925 29.1091 55.6801 34.1708 52.9036 34.5504C50.1271 34.93 47.3505 34.93 45.205 31.6399C43.0595 28.3498 45.4574 19.3654 46.5933 18.0999C47.7291 16.8345 49.1174 14.1771 51.0105 14.1771Z" fill="#724923"/>
  <path d="M28.041 26.3252C30.6913 25.6925 36.7492 25.49 39.7782 29.7418C43.5644 35.0566 46.5933 35.5627 47.9816 36.1954C49.3698 36.8281 53.5346 38.5997 52.9036 44.9268C52.2726 51.2539 48.4864 53.9113 45.205 54.4175C41.9237 54.9237 41.2926 55.1768 39.0209 54.7971C36.7492 54.4175 33.9727 54.7971 33.4679 55.0502C32.963 55.3033 27.2838 58.3403 23.8762 58.3403C20.4687 58.3403 14.6632 56.8218 14.0321 52.6459C13.4011 48.47 13.6535 46.5719 14.6632 44.8003C15.6728 43.0287 20.4687 37.3343 20.9735 34.0442C21.4783 30.7541 26.0217 27.0844 28.041 26.3252Z" fill="#724923"/>
</svg>