<svg width="145" height="36" viewBox="0 0 145 36" fill="none" xmlns="http://www.w3.org/2000/svg">
<path d="M4.908 18.144H9.036C9.532 18.144 9.88 18.048 10.08 17.856C10.288 17.656 10.428 17.276 10.5 16.716C10.524 16.564 10.572 16.448 10.644 16.368C10.716 16.288 10.812 16.24 10.932 16.224C11.18 16.2 11.34 16.336 11.412 16.632L12.324 20.1C12.364 20.26 12.364 20.388 12.324 20.484C12.284 20.58 12.196 20.648 12.06 20.688C11.94 20.728 11.824 20.728 11.712 20.688C11.608 20.64 11.52 20.556 11.448 20.436C11.24 20.06 11.048 19.772 10.872 19.572C10.696 19.372 10.496 19.236 10.272 19.164C10.056 19.092 9.784 19.056 9.456 19.056H4.908V18.144ZM1.32 10.608C1.32 10.48 1.364 10.38 1.452 10.308C1.548 10.236 1.688 10.2 1.872 10.2H11.04C11.288 10.2 11.492 10.16 11.652 10.08C11.812 9.992 11.964 9.908 12.108 9.828C12.252 9.74 12.408 9.696 12.576 9.696C12.752 9.696 12.888 9.748 12.984 9.852C13.08 9.948 13.16 10.112 13.224 10.344L14.16 13.74C14.208 13.9 14.204 14.032 14.148 14.136C14.1 14.232 14.008 14.304 13.872 14.352C13.72 14.392 13.58 14.384 13.452 14.328C13.332 14.264 13.232 14.152 13.152 13.992C12.864 13.376 12.6 12.88 12.36 12.504C12.12 12.12 11.876 11.832 11.628 11.64C11.388 11.44 11.12 11.304 10.824 11.232C10.536 11.16 10.196 11.124 9.804 11.124H5.928V25.056C5.928 25.392 6.032 25.648 6.24 25.824C6.456 25.992 6.784 26.076 7.224 26.076H10.14C10.652 26.076 11.092 25.988 11.46 25.812C11.828 25.636 12.18 25.296 12.516 24.792C12.86 24.28 13.248 23.516 13.68 22.5C13.744 22.356 13.824 22.26 13.92 22.212C14.024 22.156 14.14 22.136 14.268 22.152C14.42 22.176 14.528 22.244 14.592 22.356C14.656 22.46 14.668 22.6 14.628 22.776L13.632 26.772C13.568 27.004 13.484 27.172 13.38 27.276C13.276 27.388 13.128 27.444 12.936 27.444C12.784 27.444 12.636 27.404 12.492 27.324C12.356 27.252 12.204 27.18 12.036 27.108C11.868 27.036 11.664 27 11.424 27H1.872C1.688 27 1.548 26.964 1.452 26.892C1.364 26.812 1.32 26.712 1.32 26.592C1.32 26.36 1.464 26.204 1.752 26.124L2.568 25.98C2.76 25.94 2.904 25.868 3 25.764C3.104 25.66 3.156 25.524 3.156 25.356V11.844C3.156 11.676 3.104 11.54 3 11.436C2.904 11.332 2.76 11.26 2.568 11.22L1.752 11.076C1.464 10.996 1.32 10.84 1.32 10.608ZM20.3904 25.32C20.3904 25.728 20.4464 26.12 20.5584 26.496C20.6704 26.872 20.7984 27.24 20.9424 27.6C21.0944 27.968 21.2264 28.328 21.3384 28.68C21.4504 29.04 21.5064 29.408 21.5064 29.784C21.5064 30.624 21.2064 31.3 20.6064 31.812C20.0064 32.324 19.1984 32.58 18.1824 32.58C17.4544 32.58 16.8424 32.468 16.3464 32.244C15.8504 32.02 15.4744 31.72 15.2184 31.344C14.9624 30.976 14.8344 30.576 14.8344 30.144C14.8344 29.68 14.9464 29.332 15.1704 29.1C15.3944 28.868 15.6944 28.752 16.0704 28.752C16.4384 28.752 16.7304 28.876 16.9464 29.124C17.1624 29.372 17.2704 29.7 17.2704 30.108V30.672C17.2704 31.064 17.3704 31.364 17.5704 31.572C17.7704 31.78 18.0664 31.884 18.4584 31.884C18.8984 31.876 19.2344 31.752 19.4664 31.512C19.7064 31.272 19.8264 30.924 19.8264 30.468C19.8264 30.148 19.7624 29.836 19.6344 29.532C19.5064 29.228 19.3424 28.924 19.1424 28.62C18.9504 28.324 18.7584 28.024 18.5664 27.72C18.3744 27.424 18.2104 27.116 18.0744 26.796C17.9464 26.476 17.8824 26.144 17.8824 25.8V17.88C17.8824 17.704 17.8544 17.58 17.7984 17.508C17.7424 17.428 17.6464 17.38 17.5104 17.364L16.6944 17.328C16.5664 17.312 16.4744 17.276 16.4184 17.22C16.3624 17.164 16.3344 17.092 16.3344 17.004C16.3344 16.908 16.3664 16.828 16.4304 16.764C16.4944 16.7 16.6104 16.636 16.7784 16.572L18.8184 15.864C19.0664 15.776 19.2664 15.716 19.4184 15.684C19.5704 15.644 19.6984 15.624 19.8024 15.624C20.0024 15.624 20.1504 15.676 20.2464 15.78C20.3424 15.884 20.3904 16.028 20.3904 16.212V25.32ZM18.7944 13.404C18.2904 13.404 17.8784 13.264 17.5584 12.984C17.2384 12.696 17.0784 12.328 17.0784 11.88C17.0784 11.432 17.2384 11.068 17.5584 10.788C17.8784 10.508 18.2904 10.368 18.7944 10.368C19.3144 10.368 19.7344 10.512 20.0544 10.8C20.3744 11.08 20.5344 11.44 20.5344 11.88C20.5344 12.328 20.3744 12.696 20.0544 12.984C19.7344 13.264 19.3144 13.404 18.7944 13.404ZM33.9474 20.028C33.9474 20.372 33.8434 20.64 33.6354 20.832C33.4354 21.016 33.1354 21.108 32.7354 21.108H25.0794V20.376H30.8154C31.1994 20.376 31.3914 20.204 31.3914 19.86C31.3914 18.78 31.1594 17.94 30.6954 17.34C30.2394 16.732 29.6274 16.428 28.8594 16.428C28.2514 16.428 27.7154 16.604 27.2514 16.956C26.7954 17.3 26.4394 17.792 26.1834 18.432C25.9274 19.064 25.7994 19.812 25.7994 20.676C25.7994 22.276 26.1754 23.488 26.9274 24.312C27.6874 25.136 28.6834 25.548 29.9154 25.548C30.7074 25.548 31.3954 25.368 31.9794 25.008C32.5634 24.64 32.9714 24.156 33.2034 23.556C33.2994 23.428 33.3794 23.34 33.4434 23.292C33.5074 23.244 33.5754 23.22 33.6474 23.22C33.7594 23.22 33.8354 23.264 33.8754 23.352C33.9234 23.44 33.9474 23.548 33.9474 23.676C33.8914 24.332 33.6514 24.936 33.2274 25.488C32.8034 26.032 32.2354 26.468 31.5234 26.796C30.8194 27.116 30.0154 27.276 29.1114 27.276C27.9994 27.276 27.0194 27.044 26.1714 26.58C25.3234 26.108 24.6594 25.448 24.1794 24.6C23.7074 23.744 23.4714 22.744 23.4714 21.6C23.4714 20.432 23.7034 19.392 24.1674 18.48C24.6314 17.568 25.2874 16.848 26.1354 16.32C26.9914 15.792 28.0074 15.528 29.1834 15.528C30.1594 15.528 31.0034 15.72 31.7154 16.104C32.4274 16.488 32.9754 17.016 33.3594 17.688C33.7514 18.36 33.9474 19.14 33.9474 20.028ZM55.3279 16.236C55.3279 17.268 55.0679 18.164 54.5479 18.924C54.0359 19.676 53.3119 20.26 52.3759 20.676C51.4479 21.092 50.3639 21.3 49.1239 21.3C48.2759 21.3 47.4919 21.212 46.7719 21.036C46.0599 20.86 45.4439 20.608 44.9239 20.28L45.0679 19.452C45.3559 19.644 45.6839 19.808 46.0519 19.944C46.4199 20.072 46.8039 20.172 47.2039 20.244C47.6119 20.316 48.0239 20.352 48.4399 20.352C49.2559 20.352 49.9719 20.188 50.5879 19.86C51.2039 19.524 51.6879 19.044 52.0399 18.42C52.3919 17.788 52.5679 17.036 52.5679 16.164C52.5679 15.148 52.3559 14.264 51.9319 13.512C51.5079 12.752 50.9079 12.164 50.1319 11.748C49.3559 11.324 48.4359 11.112 47.3719 11.112H46.0999V25.356C46.0999 25.524 46.1479 25.664 46.2439 25.776C46.3399 25.88 46.4839 25.948 46.6759 25.98L47.8999 26.124C48.0679 26.148 48.1839 26.2 48.2479 26.28C48.3199 26.352 48.3559 26.456 48.3559 26.592C48.3559 26.712 48.3119 26.812 48.2239 26.892C48.1439 26.964 48.0039 27 47.8039 27H42.0439C41.8599 27 41.7199 26.964 41.6239 26.892C41.5359 26.812 41.4919 26.712 41.4919 26.592C41.4919 26.36 41.6359 26.204 41.9239 26.124L42.7399 25.98C42.9319 25.932 43.0759 25.86 43.1719 25.764C43.2759 25.66 43.3279 25.524 43.3279 25.356V11.844C43.3279 11.676 43.2759 11.544 43.1719 11.448C43.0759 11.344 42.9359 11.268 42.7519 11.22L41.9239 11.076C41.6359 10.996 41.4919 10.84 41.4919 10.608C41.4919 10.48 41.5359 10.38 41.6239 10.308C41.7199 10.236 41.8599 10.2 42.0439 10.2H47.4319C49.0879 10.2 50.5039 10.46 51.6799 10.98C52.8559 11.5 53.7559 12.216 54.3799 13.128C55.0119 14.032 55.3279 15.068 55.3279 16.236ZM66.8771 20.028C66.8771 20.372 66.7731 20.64 66.5651 20.832C66.3651 21.016 66.0651 21.108 65.6651 21.108H58.0091V20.376H63.7451C64.1291 20.376 64.3211 20.204 64.3211 19.86C64.3211 18.78 64.0891 17.94 63.6251 17.34C63.1691 16.732 62.5571 16.428 61.7891 16.428C61.1811 16.428 60.6451 16.604 60.1811 16.956C59.7251 17.3 59.3691 17.792 59.1131 18.432C58.8571 19.064 58.7291 19.812 58.7291 20.676C58.7291 22.276 59.1051 23.488 59.8571 24.312C60.6171 25.136 61.6131 25.548 62.8451 25.548C63.6371 25.548 64.3251 25.368 64.9091 25.008C65.4931 24.64 65.9011 24.156 66.1331 23.556C66.2291 23.428 66.3091 23.34 66.3731 23.292C66.4371 23.244 66.5051 23.22 66.5771 23.22C66.6891 23.22 66.7651 23.264 66.8051 23.352C66.8531 23.44 66.8771 23.548 66.8771 23.676C66.8211 24.332 66.5811 24.936 66.1571 25.488C65.7331 26.032 65.1651 26.468 64.4531 26.796C63.7491 27.116 62.9451 27.276 62.0411 27.276C60.9291 27.276 59.9491 27.044 59.1011 26.58C58.2531 26.108 57.5891 25.448 57.1091 24.6C56.6371 23.744 56.4011 22.744 56.4011 21.6C56.4011 20.432 56.6331 19.392 57.0971 18.48C57.5611 17.568 58.2171 16.848 59.0651 16.32C59.9211 15.792 60.9371 15.528 62.1131 15.528C63.0891 15.528 63.9331 15.72 64.6451 16.104C65.3571 16.488 65.9051 17.016 66.2891 17.688C66.6811 18.36 66.8771 19.14 66.8771 20.028ZM69.4847 16.728L68.8247 16.56C68.6327 16.512 68.5007 16.452 68.4287 16.38C68.3567 16.308 68.3207 16.228 68.3207 16.14C68.3207 16.02 68.3607 15.932 68.4407 15.876C68.5287 15.812 68.6407 15.78 68.7767 15.78H69.5687C69.7687 15.78 69.9287 15.748 70.0487 15.684C70.1767 15.612 70.2927 15.492 70.3967 15.324L71.4047 13.548C71.5167 13.372 71.6287 13.244 71.7407 13.164C71.8527 13.084 71.9687 13.044 72.0887 13.044C72.2247 13.044 72.3287 13.084 72.4007 13.164C72.4727 13.244 72.5087 13.36 72.5087 13.512V24.072C72.5087 24.624 72.6207 25.048 72.8447 25.344C73.0767 25.632 73.3967 25.776 73.8047 25.776C74.0927 25.776 74.3167 25.728 74.4767 25.632C74.6367 25.536 74.7647 25.424 74.8607 25.296C74.9567 25.168 75.0447 25.052 75.1247 24.948C75.2127 24.844 75.3167 24.784 75.4367 24.768C75.5327 24.768 75.6047 24.8 75.6527 24.864C75.7087 24.92 75.7367 25.016 75.7367 25.152C75.7287 25.504 75.6007 25.836 75.3527 26.148C75.1127 26.46 74.7767 26.716 74.3447 26.916C73.9207 27.108 73.4327 27.204 72.8807 27.204C72.0007 27.204 71.3007 26.98 70.7807 26.532C70.2687 26.076 70.0127 25.384 70.0127 24.456V17.388C70.0127 17.204 69.9727 17.064 69.8927 16.968C69.8127 16.864 69.6767 16.784 69.4847 16.728ZM71.4047 16.68V15.78H75.1607C75.3207 15.78 75.4407 15.808 75.5207 15.864C75.6007 15.92 75.6407 16.008 75.6407 16.128C75.6407 16.288 75.5607 16.42 75.4007 16.524C75.2407 16.628 74.9887 16.68 74.6447 16.68H71.4047ZM82.3337 26.436C82.9337 26.436 83.4057 26.28 83.7497 25.968C84.0937 25.648 84.2657 25.24 84.2657 24.744C84.2657 24.44 84.1897 24.164 84.0377 23.916C83.8937 23.66 83.6337 23.432 83.2577 23.232C82.8817 23.024 82.3417 22.828 81.6377 22.644C80.5417 22.388 79.6817 22.076 79.0577 21.708C78.4417 21.34 78.0097 20.92 77.7617 20.448C77.5137 19.976 77.3897 19.456 77.3897 18.888C77.3897 17.872 77.7497 17.06 78.4697 16.452C79.1977 15.836 80.2297 15.528 81.5657 15.528C82.0697 15.528 82.4817 15.572 82.8017 15.66C83.1297 15.748 83.4017 15.84 83.6177 15.936C83.8337 16.024 84.0177 16.068 84.1697 16.068C84.3297 16.068 84.4537 16.024 84.5417 15.936C84.6297 15.84 84.7137 15.748 84.7937 15.66C84.8737 15.572 84.9857 15.528 85.1297 15.528C85.2257 15.528 85.3097 15.56 85.3817 15.624C85.4537 15.68 85.5177 15.792 85.5737 15.96L86.4377 18.528C86.5097 18.736 86.5297 18.912 86.4977 19.056C86.4737 19.192 86.3897 19.288 86.2457 19.344C86.1097 19.4 85.9897 19.4 85.8857 19.344C85.7817 19.288 85.6817 19.188 85.5857 19.044C85.2337 18.372 84.8497 17.844 84.4337 17.46C84.0177 17.068 83.5777 16.792 83.1137 16.632C82.6577 16.464 82.1817 16.38 81.6857 16.38C80.9337 16.38 80.3657 16.54 79.9817 16.86C79.6057 17.18 79.4177 17.608 79.4177 18.144C79.4177 18.456 79.4977 18.744 79.6577 19.008C79.8257 19.272 80.1217 19.516 80.5457 19.74C80.9697 19.956 81.5697 20.164 82.3457 20.364C83.3137 20.596 84.0817 20.88 84.6497 21.216C85.2257 21.552 85.6377 21.956 85.8857 22.428C86.1417 22.892 86.2697 23.436 86.2697 24.06C86.2697 24.692 86.1097 25.252 85.7897 25.74C85.4777 26.22 85.0337 26.596 84.4577 26.868C83.8817 27.14 83.2097 27.276 82.4417 27.276C81.9537 27.276 81.5577 27.224 81.2537 27.12C80.9497 27.016 80.6937 26.916 80.4857 26.82C80.2857 26.716 80.0977 26.664 79.9217 26.664C79.7697 26.664 79.6457 26.716 79.5497 26.82C79.4537 26.916 79.3617 27.016 79.2737 27.12C79.1857 27.224 79.0777 27.276 78.9497 27.276C78.8617 27.276 78.7857 27.244 78.7217 27.18C78.6577 27.116 78.6097 27.008 78.5777 26.856L78.0617 24.432C78.0057 24.16 77.9897 23.96 78.0137 23.832C78.0377 23.704 78.1137 23.612 78.2417 23.556C78.3857 23.508 78.5057 23.52 78.6017 23.592C78.7057 23.664 78.8137 23.792 78.9257 23.976C79.3897 24.848 79.9137 25.476 80.4977 25.86C81.0897 26.244 81.7017 26.436 82.3337 26.436Z" fill="white"/>
<path d="M101.322 12.5938C102.366 12.5118 102.909 13.1321 103.121 13.4601C103.65 14.2799 104.549 16.0807 104.758 16.9011C104.966 17.7214 104.661 19.7653 103.922 20.2169C103.184 20.6685 102.349 20.9271 101.578 20.6708C100.807 20.4145 98.9291 18.8242 99.1221 16.9574C99.2614 15.6092 99.524 13.1756 101.322 12.5938Z" fill="white"/>
<path d="M109.496 6.67677C110.315 6.94913 111.034 8.52939 110.715 11.6952C110.297 15.8472 107.263 15.9642 106.492 15.7079C105.721 15.4515 103.698 14.2959 104.454 10.7388C104.975 8.28397 108.292 6.27625 109.496 6.67677Z" fill="white"/>
<path d="M114.843 7.32878C115.492 7.22104 117.649 8.70208 118.342 11.1211C119.036 13.5401 117.624 15.5845 116.832 16.3044C116.302 16.6645 114.941 17.1663 113.733 16.2928C112.224 15.2008 112.096 13.4954 112.305 12.5457C112.514 11.5961 113.007 8.5936 113.494 8.00651C113.981 7.41942 114.484 7.3883 114.843 7.32878Z" fill="white"/>
<path d="M120.702 14.8024C121.344 15.1233 122.574 16.3476 122.355 18.6778C122.082 21.5906 119.946 23.0257 118.838 22.8181C117.73 22.6106 116.671 22.2581 116.27 20.7301C115.868 19.2021 117.924 16.0776 118.518 15.7388C119.112 15.4 119.979 14.5621 120.702 14.8024Z" fill="white"/>
<path d="M110.394 16.5229C111.485 16.6178 113.823 17.3096 114.439 19.3168C115.21 21.8258 116.301 22.4034 116.751 22.8211C117.2 23.2388 118.565 24.4437 117.521 26.7783C116.477 29.1129 114.695 29.6465 113.378 29.4231C112.062 29.1997 111.789 29.2162 110.97 28.783C110.151 28.3497 109.043 28.1421 108.818 28.1746C108.594 28.2071 106.04 28.6452 104.74 28.2127C103.44 27.7801 101.417 26.4636 101.706 24.7898C101.995 23.116 102.332 22.4236 102.943 21.8756C103.553 21.3277 106.106 19.7632 106.716 18.5716C107.327 17.3801 109.527 16.5563 110.394 16.5229Z" fill="white"/>
<ellipse cx="129.72" cy="24.9329" rx="1.71967" ry="2.10179" transform="rotate(-40.7046 129.72 24.9329)" fill="white"/>
<ellipse cx="131.209" cy="20.5605" rx="1.85304" ry="2.27778" transform="rotate(-29.6974 131.209 20.5605)" fill="white"/>
<ellipse cx="135.022" cy="18.5478" rx="1.85304" ry="2.38695" transform="rotate(-24.0163 135.022 18.5478)" fill="white"/>
<ellipse cx="139.398" cy="19.8025" rx="1.77156" ry="2.20366" transform="rotate(-11.1545 139.398 19.8025)" fill="white"/>
<path d="M134.513 22.1545C135.352 21.704 136.378 21.495 138.367 22.7616C139.048 23.1954 140.633 22.7412 141.51 24.3764C141.891 25.1209 142.258 26.8097 140.683 27.609C138.715 28.6081 138.937 27.749 137.832 28.3418C136.727 28.9346 137.015 29.5771 135.689 30.2884C134.363 30.9998 133.158 30.4511 132.45 29.2373C131.742 28.0236 132.61 26.9888 132.843 25.7255C133.076 24.4623 133.098 22.9133 134.513 22.1545Z" fill="white"/>
</svg>
