<svg width="354" height="256" viewBox="0 0 354 256" fill="none" xmlns="http://www.w3.org/2000/svg">
<path d="M23.808 63.6H43.84C47.04 63.6 49.3653 62.8747 50.816 61.424C52.3093 59.9307 53.184 57.2213 53.44 53.296C53.4827 53.0827 53.5253 52.9547 53.568 52.912C53.6107 52.8267 53.6747 52.784 53.76 52.784C54.0587 52.6987 54.272 52.9333 54.4 53.488L60.608 73.904C60.6933 74.1173 60.7147 74.288 60.672 74.416C60.6293 74.544 60.544 74.6293 60.416 74.672C60.3307 74.672 60.224 74.672 60.096 74.672C60.0107 74.6293 59.904 74.544 59.776 74.416C58.112 71.856 56.5973 69.872 55.232 68.464C53.8667 67.056 52.416 66.0747 50.88 65.52C49.344 64.9653 47.5093 64.688 45.376 64.688H23.808V63.6ZM4.608 20.784C4.608 20.656 4.65067 20.5707 4.736 20.528C4.82133 20.4427 4.97067 20.4 5.184 20.4H57.408C58.304 20.4 59.1147 20.2507 59.84 19.952C60.5653 19.6107 61.1627 19.2907 61.632 18.992C62.144 18.6933 62.4853 18.544 62.656 18.544C62.784 18.544 62.8693 18.608 62.912 18.736C62.9973 18.8213 63.104 19.1413 63.232 19.696L68.608 40.56C68.6933 40.816 68.6933 41.008 68.608 41.136C68.5653 41.2213 68.5013 41.2853 68.416 41.328C68.3307 41.328 68.224 41.3067 68.096 41.264C68.0107 41.2213 67.904 41.1147 67.776 40.944C65.5573 36.976 63.5307 33.7333 61.696 31.216C59.8613 28.6987 58.1333 26.736 56.512 25.328C54.9333 23.8773 53.3547 22.8747 51.776 22.32C50.1973 21.7653 48.512 21.488 46.72 21.488H26.688V106.224C26.688 107.12 26.944 107.803 27.456 108.272C28.0107 108.699 28.8 108.912 29.824 108.912H47.36C49.8347 108.912 52.1173 108.315 54.208 107.12C56.3413 105.883 58.6027 103.515 60.992 100.016C63.3813 96.5173 66.2187 91.312 69.504 84.4C69.632 84.2293 69.7387 84.1013 69.824 84.016C69.952 83.888 70.08 83.8453 70.208 83.888C70.336 83.888 70.4213 83.9733 70.464 84.144C70.5067 84.3147 70.4853 84.528 70.4 84.784L64.064 110.64C63.936 111.152 63.8293 111.472 63.744 111.6C63.6587 111.771 63.5733 111.856 63.488 111.856C63.1893 111.856 62.7627 111.707 62.208 111.408C61.696 111.109 60.992 110.789 60.096 110.448C59.2 110.149 58.0693 110 56.704 110H5.184C4.97067 110 4.82133 109.957 4.736 109.872C4.65067 109.787 4.608 109.701 4.608 109.616C4.608 109.403 4.82133 109.253 5.248 109.168L11.2 108.336C11.968 108.208 12.544 108.016 12.928 107.76C13.312 107.504 13.504 107.12 13.504 106.608V23.792C13.504 23.28 13.312 22.896 12.928 22.64C12.544 22.3413 11.968 22.1493 11.2 22.064L5.248 21.232C4.82133 21.1467 4.608 20.9973 4.608 20.784ZM93.98 102.768C93.98 105.371 94.2147 107.717 94.684 109.808C95.196 111.856 95.772 113.776 96.412 115.568C97.052 117.403 97.6067 119.216 98.076 121.008C98.588 122.843 98.844 124.784 98.844 126.832C98.844 130.416 97.7133 133.317 95.452 135.536C93.2333 137.797 90.1187 138.928 86.108 138.928C83.292 138.928 80.86 138.48 78.812 137.584C76.8067 136.688 75.2493 135.451 74.14 133.872C73.0733 132.336 72.54 130.651 72.54 128.816C72.54 126.725 73.0307 125.168 74.012 124.144C74.9933 123.12 76.2947 122.608 77.916 122.608C79.4947 122.608 80.796 123.163 81.82 124.272C82.844 125.381 83.356 126.832 83.356 128.624V132.912C83.356 134.576 83.6973 135.835 84.38 136.688C85.1053 137.541 86.108 137.968 87.388 137.968C89.3507 137.968 90.8227 137.328 91.804 136.048C92.828 134.768 93.34 132.955 93.34 130.608C93.34 128.688 92.9773 126.853 92.252 125.104C91.5267 123.397 90.6307 121.712 89.564 120.048C88.4973 118.427 87.4307 116.763 86.364 115.056C85.2973 113.392 84.4013 111.664 83.676 109.872C82.9933 108.08 82.652 106.181 82.652 104.176V59.568C82.652 59.2693 82.588 59.0773 82.46 58.992C82.332 58.864 82.14 58.8 81.884 58.8H76.956C76.7427 58.8 76.5933 58.7573 76.508 58.672C76.4653 58.5867 76.444 58.48 76.444 58.352C76.444 58.224 76.4867 58.1387 76.572 58.096C76.6573 58.0107 76.764 57.9467 76.892 57.904L92.124 53.616C92.4653 53.5307 92.7 53.4667 92.828 53.424C92.9987 53.3813 93.1907 53.36 93.404 53.36C93.5747 53.36 93.7027 53.4453 93.788 53.616C93.916 53.744 93.98 53.936 93.98 54.192V102.768ZM87.964 43.056C85.8733 43.056 84.1667 42.352 82.844 40.944C81.5213 39.4933 80.86 37.7227 80.86 35.632C80.86 33.5413 81.5213 31.792 82.844 30.384C84.2093 28.9333 85.916 28.208 87.964 28.208C90.0973 28.208 91.8253 28.9333 93.148 30.384C94.5133 31.8347 95.196 33.584 95.196 35.632C95.196 37.7227 94.5133 39.4933 93.148 40.944C91.7827 42.352 90.0547 43.056 87.964 43.056ZM152.883 76.208C152.883 76.5493 152.776 76.8267 152.563 77.04C152.35 77.2533 152.03 77.36 151.603 77.36H112.115V76.4H140.467C141.15 76.4 141.491 76.0373 141.491 75.312C141.491 68.2293 140.339 62.896 138.035 59.312C135.774 55.728 132.915 53.936 129.459 53.936C126.43 53.936 123.848 54.8747 121.715 56.752C119.582 58.5867 117.939 61.296 116.787 64.88C115.635 68.4213 115.059 72.7733 115.059 77.936C115.059 86.7253 116.936 93.4027 120.691 97.968C124.446 102.533 129.331 104.816 135.347 104.816C139.571 104.816 143.219 103.579 146.291 101.104C149.363 98.6293 151.198 95.2587 151.795 90.992C151.795 90.8213 151.838 90.7147 151.923 90.672C152.008 90.5867 152.072 90.544 152.115 90.544C152.2 90.544 152.286 90.5867 152.371 90.672C152.456 90.7147 152.499 90.864 152.499 91.12C152.115 94.96 150.878 98.416 148.787 101.488C146.739 104.517 144.051 106.907 140.723 108.656C137.438 110.405 133.747 111.28 129.651 111.28C124.659 111.28 120.264 110.149 116.467 107.888C112.712 105.627 109.768 102.405 107.635 98.224C105.544 94.0427 104.499 89.1147 104.499 83.44C104.499 77.552 105.587 72.3253 107.763 67.76C109.939 63.1947 112.99 59.6107 116.915 57.008C120.883 54.3627 125.512 53.04 130.803 53.04C135.283 53.04 139.166 54.0427 142.451 56.048C145.736 58.0533 148.296 60.8053 150.131 64.304C151.966 67.76 152.883 71.728 152.883 76.208ZM158.676 181.424C158.676 187.227 157.375 192.283 154.772 196.592C152.212 200.859 148.628 204.187 144.02 206.576C139.455 208.923 134.164 210.096 128.148 210.096C123.967 210.096 120.105 209.605 116.564 208.624C113.065 207.6 109.823 206.021 106.836 203.888L107.092 203.12C109.055 204.485 111.017 205.573 112.98 206.384C114.985 207.152 116.948 207.707 118.868 208.048C120.788 208.347 122.601 208.496 124.308 208.496C128.532 208.496 132.244 207.387 135.444 205.168C138.644 202.907 141.161 199.728 142.996 195.632C144.831 191.493 145.748 186.651 145.748 181.104C145.748 174.448 144.553 168.773 142.164 164.08C139.817 159.344 136.575 155.717 132.436 153.2C128.297 150.683 123.54 149.424 118.164 149.424H111.188V234.608C111.188 235.077 111.337 235.44 111.636 235.696C111.977 235.952 112.489 236.144 113.172 236.272L119.508 237.232C119.679 237.275 119.807 237.317 119.892 237.36C120.02 237.403 120.084 237.488 120.084 237.616C120.084 237.744 120.041 237.851 119.956 237.936C119.871 237.979 119.721 238 119.508 238H89.684C89.5133 238 89.364 237.979 89.236 237.936C89.1507 237.851 89.108 237.744 89.108 237.616C89.108 237.403 89.3 237.253 89.684 237.168L96.02 236.272C96.7027 236.144 97.1933 235.952 97.492 235.696C97.8333 235.397 98.004 235.056 98.004 234.672V151.92C98.004 151.451 97.8547 151.067 97.556 150.768C97.2573 150.427 96.788 150.213 96.148 150.128L89.62 149.168C89.2787 149.125 89.108 148.997 89.108 148.784C89.108 148.656 89.1507 148.571 89.236 148.528C89.364 148.443 89.5133 148.4 89.684 148.4H118.164C126.185 148.4 133.225 149.765 139.284 152.496C145.385 155.227 150.143 159.088 153.556 164.08C156.969 169.029 158.676 174.811 158.676 181.424ZM211.633 204.208C211.633 204.549 211.526 204.827 211.313 205.04C211.1 205.253 210.78 205.36 210.353 205.36H170.865V204.4H199.217C199.9 204.4 200.241 204.037 200.241 203.312C200.241 196.229 199.089 190.896 196.785 187.312C194.524 183.728 191.665 181.936 188.209 181.936C185.18 181.936 182.598 182.875 180.465 184.752C178.332 186.587 176.689 189.296 175.537 192.88C174.385 196.421 173.809 200.773 173.809 205.936C173.809 214.725 175.686 221.403 179.441 225.968C183.196 230.533 188.081 232.816 194.097 232.816C198.321 232.816 201.969 231.579 205.041 229.104C208.113 226.629 209.948 223.259 210.545 218.992C210.545 218.821 210.588 218.715 210.673 218.672C210.758 218.587 210.822 218.544 210.865 218.544C210.95 218.544 211.036 218.587 211.121 218.672C211.206 218.715 211.249 218.864 211.249 219.12C210.865 222.96 209.628 226.416 207.537 229.488C205.489 232.517 202.801 234.907 199.473 236.656C196.188 238.405 192.497 239.28 188.401 239.28C183.409 239.28 179.014 238.149 175.217 235.888C171.462 233.627 168.518 230.405 166.385 226.224C164.294 222.043 163.249 217.115 163.249 211.44C163.249 205.552 164.337 200.325 166.513 195.76C168.689 191.195 171.74 187.611 175.665 185.008C179.633 182.363 184.262 181.04 189.553 181.04C194.033 181.04 197.916 182.043 201.201 184.048C204.486 186.053 207.046 188.805 208.881 192.304C210.716 195.76 211.633 199.728 211.633 204.208ZM221.741 184.304L215.789 183.28C215.576 183.195 215.426 183.131 215.341 183.088C215.256 183.003 215.213 182.896 215.213 182.768C215.213 182.64 215.256 182.555 215.341 182.512C215.426 182.427 215.512 182.384 215.597 182.384H221.485C221.826 182.384 222.104 182.341 222.317 182.256C222.53 182.128 222.701 181.936 222.829 181.68L231.981 170.032C232.152 169.861 232.322 169.733 232.493 169.648C232.664 169.52 232.834 169.456 233.005 169.456C233.218 169.456 233.368 169.52 233.453 169.648C233.581 169.733 233.645 169.904 233.645 170.16V225.072C233.645 228.357 234.285 230.811 235.565 232.432C236.845 234.011 238.594 234.8 240.813 234.8C241.666 234.8 242.477 234.693 243.245 234.48C244.013 234.224 244.717 233.861 245.357 233.392C245.997 232.88 246.573 232.24 247.085 231.472C247.597 230.704 248.024 229.765 248.365 228.656C248.45 228.443 248.557 228.357 248.685 228.4C248.856 228.4 248.898 228.549 248.813 228.848C248.13 231.152 247.234 233.072 246.125 234.608C245.016 236.101 243.65 237.211 242.029 237.936C240.408 238.661 238.488 239.024 236.269 239.024C231.96 239.024 228.61 238 226.221 235.952C223.832 233.904 222.637 230.747 222.637 226.48V185.584C222.637 185.2 222.573 184.901 222.445 184.688C222.317 184.475 222.082 184.347 221.741 184.304ZM229.933 183.536L230.189 182.384H248.301C248.557 182.384 248.706 182.427 248.749 182.512C248.834 182.555 248.877 182.661 248.877 182.832C248.877 183.045 248.749 183.216 248.493 183.344C248.28 183.472 247.938 183.536 247.469 183.536H229.933ZM275.536 238.128C278.821 238.128 281.424 237.275 283.344 235.568C285.307 233.819 286.288 231.536 286.288 228.72C286.288 226.8 285.84 225.093 284.944 223.6C284.091 222.064 282.619 220.677 280.528 219.44C278.48 218.16 275.664 216.944 272.08 215.792C267.344 214.256 263.611 212.571 260.88 210.736C258.149 208.901 256.187 206.853 254.992 204.592C253.84 202.288 253.264 199.664 253.264 196.72C253.264 191.685 254.971 187.781 258.384 185.008C261.797 182.235 266.341 180.848 272.016 180.848C274.576 180.848 276.667 181.104 278.288 181.616C279.952 182.128 281.232 182.64 282.128 183.152C283.024 183.664 283.6 183.92 283.856 183.92C284.197 183.92 284.816 183.664 285.712 183.152C286.608 182.64 287.461 182.128 288.272 181.616C289.125 181.104 289.68 180.848 289.936 180.848C290.064 180.848 290.192 180.891 290.32 180.976C290.448 181.019 290.533 181.189 290.576 181.488L294.352 198.96C294.437 199.216 294.459 199.451 294.416 199.664C294.416 199.835 294.331 199.963 294.16 200.048C294.032 200.091 293.904 200.091 293.776 200.048C293.691 200.005 293.584 199.899 293.456 199.728C291.408 195.333 289.317 191.835 287.184 189.232C285.051 186.587 282.768 184.688 280.336 183.536C277.947 182.384 275.301 181.808 272.4 181.808C268.816 181.808 266 182.725 263.952 184.56C261.904 186.352 260.88 188.741 260.88 191.728C260.88 193.648 261.307 195.376 262.16 196.912C263.056 198.405 264.592 199.792 266.768 201.072C268.987 202.352 272.101 203.568 276.112 204.72C280.421 205.957 283.899 207.472 286.544 209.264C289.189 211.056 291.109 213.125 292.304 215.472C293.499 217.776 294.096 220.4 294.096 223.344C294.096 226.544 293.328 229.339 291.792 231.728C290.256 234.075 288.144 235.909 285.456 237.232C282.768 238.555 279.717 239.216 276.304 239.216C274 239.216 271.995 238.853 270.288 238.128C268.581 237.445 267.216 236.763 266.192 236.08C265.168 235.355 264.507 234.992 264.208 234.992C264.037 234.992 263.589 235.333 262.864 236.016C262.181 236.656 261.477 237.296 260.752 237.936C260.027 238.576 259.515 238.896 259.216 238.896C259.045 238.896 258.875 238.832 258.704 238.704C258.533 238.576 258.405 238.32 258.32 237.936L255.248 222.64C255.205 222.256 255.184 221.979 255.184 221.808C255.227 221.595 255.312 221.445 255.44 221.36C255.568 221.275 255.675 221.275 255.76 221.36C255.888 221.403 255.973 221.509 256.016 221.68C259.088 227.739 262.309 232.005 265.68 234.48C269.051 236.912 272.336 238.128 275.536 238.128Z" fill="#1E1E24"/>
<path d="M244.434 42.1504C249.226 41.7742 251.717 44.6218 252.689 46.1273C255.121 49.8911 259.248 58.1585 260.206 61.9244C261.163 65.6903 259.761 75.0736 256.37 77.1469C252.979 79.2201 249.146 80.4075 245.608 79.2307C242.07 78.0539 233.447 70.7534 234.333 62.1833C234.973 55.9939 236.178 44.8216 244.434 42.1504Z" fill="#1E1E24"/>
<path d="M281.958 14.9864C285.717 16.2368 289.02 23.4915 287.556 38.0254C285.637 57.0863 271.705 57.6234 268.167 56.4466C264.629 55.2698 255.343 49.9647 258.809 33.6347C261.202 22.3648 276.43 13.1477 281.958 14.9864Z" fill="#1E1E24"/>
<path d="M306.503 17.9797C309.483 17.4851 319.387 24.2843 322.57 35.3895C325.752 46.4948 319.274 55.8805 315.637 59.1852C313.204 60.8385 306.953 63.1423 301.411 59.1319C294.483 54.1188 293.894 46.2896 294.853 41.9299C295.812 37.5703 298.075 23.7863 300.311 21.091C302.547 18.3958 304.857 18.2529 306.503 17.9797Z" fill="#1E1E24"/>
<path d="M333.403 52.2898C336.351 53.7629 341.996 59.3836 340.992 70.0812C339.737 83.4533 329.933 90.0417 324.847 89.0887C319.761 88.1358 314.896 86.5176 313.054 79.5028C311.212 72.488 320.65 58.1438 323.377 56.5887C326.105 55.0335 330.086 51.1866 333.403 52.2898Z" fill="#1E1E24"/>
<path d="M286.079 60.1882C291.091 60.6241 301.823 63.7998 304.652 73.0145C308.188 84.5329 313.2 87.1849 315.264 89.1025C317.328 91.0202 323.592 96.5513 318.799 107.269C314.007 117.987 305.824 120.437 299.78 119.411C293.736 118.386 292.483 118.461 288.724 116.472C284.965 114.483 279.879 113.53 278.847 113.679C277.815 113.829 266.094 115.84 260.124 113.854C254.154 111.868 244.867 105.825 246.195 98.1403C247.523 90.456 249.071 87.2775 251.873 84.7619C254.674 82.2463 266.395 75.0641 269.197 69.5938C271.999 64.1235 282.098 60.3416 286.079 60.1882Z" fill="#1E1E24"/>
<ellipse cx="183.232" cy="116.663" rx="6.52083" ry="7.96979" transform="rotate(-40.7046 183.232 116.663)" fill="#1E1E24"/>
<ellipse cx="188.88" cy="100.084" rx="7.02656" ry="8.63713" transform="rotate(-29.6974 188.88 100.084)" fill="#1E1E24"/>
<ellipse cx="203.339" cy="92.4518" rx="7.02656" ry="9.05107" transform="rotate(-24.0163 203.339 92.4518)" fill="#1E1E24"/>
<ellipse cx="219.932" cy="97.2094" rx="6.71757" ry="8.35605" transform="rotate(-11.1545 219.932 97.2094)" fill="#1E1E24"/>
<path d="M201.406 106.128C204.59 104.42 208.481 103.627 216.022 108.43C218.604 110.075 224.613 108.353 227.94 114.553C229.382 117.376 230.775 123.78 224.804 126.811C217.341 130.6 218.183 127.342 213.993 129.59C209.804 131.838 210.895 134.274 205.867 136.971C200.84 139.668 196.27 137.588 193.585 132.985C190.9 128.383 194.191 124.459 195.074 119.669C195.957 114.879 196.043 109.005 201.406 106.128Z" fill="#1E1E24"/>
</svg>
